<svg width="30" height="30" viewBox="0 0 30 30" fill="none" xmlns="http://www.w3.org/2000/svg">
<circle cx="14.9963" cy="14.9963" r="14.9963" fill="url(#paint0_linear)"/>
<path d="M14.9778 19.3306C17.1473 19.3306 18.5609 18.1548 18.5609 16.5033C18.5609 15.2016 17.5532 14.4598 16.5314 14.2218C17.5672 13.9139 18.351 13.1581 18.351 11.9964C18.351 10.4708 16.9933 9.37904 14.9498 9.37904C13.3122 9.37904 12.1925 10.1069 11.4227 11.0726L12.4585 12.1364C13.1163 11.4085 13.8441 10.9467 14.7959 10.9467C15.8316 10.9467 16.5874 11.4925 16.5874 12.2763C16.5874 13.1161 15.8456 13.578 14.7119 13.564H13.6342V15.0756L14.7119 15.0616C16.0696 15.0616 16.7834 15.5095 16.7834 16.3633C16.7834 17.2031 16.0696 17.7769 14.9218 17.7769C13.8861 17.7769 12.9623 17.3151 12.2905 16.5592L11.2268 17.707C12.0106 18.6447 13.2982 19.3306 14.9778 19.3306Z" fill="white"/>
<defs>
<linearGradient id="paint0_linear" x1="-14.9963" y1="14.9963" x2="14.9963" y2="44.9888" gradientUnits="userSpaceOnUse">
<stop stop-color="#4357AD"/>
<stop offset="1" stop-color="#438BB1"/>
</linearGradient>
</defs>
</svg>
